<?xml version="1.0" encoding="utf-8"?>
<!-- Generator: Adobe Illustrator 22.0.1, SVG Export Plug-In . SVG Version: 6.00 Build 0)  -->
<svg version="1.1" id="Calque_1" xmlns="http://www.w3.org/2000/svg" xmlns:xlink="http://www.w3.org/1999/xlink" x="0px" y="0px"
	 viewBox="0 0 432 432" style="enable-background:new 0 0 432 432;" xml:space="preserve">
<style type="text/css">
	.st0{fill:#EE724F;}
	.st1{fill:#FDCB3B;}
	.st2{fill:#36B6B1;}
	.st3{fill:#E73868;}
	.st4{fill:#F28F3F;}
	.st5{fill:#F9C528;}
	.st6{fill:#1B1B1B;}
	.st7{fill:#EA5054;}
	.st8{fill:#816C59;}
	.st9{fill:#C3AE91;}
	.st10{fill:#B4D4E1;}
	.st11{fill:#F9C8BC;}
	.st12{fill:#8FB23C;}
	.st13{fill:#EB5A58;}
	.st14{fill:#343434;}
	.st15{fill:#91CFD0;}
	.st16{fill:#FFE222;}
	.st17{fill:#B9CF48;}
	.st18{fill:#EC6284;}
	.st19{fill:#0D9380;}
	.st20{fill:#9BB581;}
	.st21{fill:#DB9EA0;}
	.st22{fill:#9A4C5F;}
	.st23{fill:#A5B449;}
	.st24{fill:#5BA645;}
	.st25{fill:#7ABA46;}
	.st26{fill:#CDCCCC;}
	.st27{fill:#EAE374;}
	.st28{fill:#10AB92;}
	.st29{fill:#A1D4C9;}
	.st30{fill:#9EB15A;}
	.st31{fill:#508CB3;}
	.st32{fill:#DE9496;}
	.st33{fill:#B3B1AB;}
	.st34{fill:#B1ADA7;}
	.st35{fill:#C1292E;}
	.st36{fill:#FDF0CE;}
	.st37{fill:#00ADA9;}
	.st38{fill:#F5A899;}
	.st39{fill:#8BCDD0;}
	.st40{fill:#00ABAB;}
	.st41{fill:#BBDCEA;}
	.st42{fill:#D49F61;}
	.st43{fill:#EC6150;}
	.st44{fill:#00A8E4;}
	.st45{fill:#95D1D4;}
	.st46{fill:#FAC4A2;}
	.st47{fill:#EB584D;}
	.st48{fill:#24211E;}
	.st49{fill:#FBC47D;}
	.st50{fill:#F28F79;}
	.st51{fill:#639BD3;}
	.st52{fill:#E8424B;}
	.st53{fill:#84B128;}
	.st54{fill:#8D715B;}
	.st55{fill:#C8B498;}
	.st56{fill:#B1DFF6;}
	.st57{fill:#3B3835;}
	.st58{fill:#F8BA00;}
	.st59{fill:#4266AE;}
	.st60{fill:#F69F28;}
	.st61{fill:#020203;}
	.st62{fill:#368DB8;}
</style>
<g>
	<g>
		<path class="st46" d="M296.3,163.3c-0.5,0.9-0.8,1.6-1.2,2.2c-2.6,3.2-5.9,5.1-10.2,5.1c-0.9,0-1.8,0-2.7,0
			c-1.6-0.1-2.7,0.6-3.5,1.9c-0.4,0.7-0.9,1.4-1.3,2.2c-2.1,3.9-5.6,5.4-9.8,5.5c-2.2,0.1-4.5-0.4-6.7-0.8c-2.3-0.4-3.3,0.1-3.9,2.3
			c-1.3,5.1-4.9,7.5-9.7,8.5c-4.2,0.8-8.4,0.6-12.5-0.8c-2.7-0.9-5-2.3-6.9-4.3c-0.9-1-1.8-2-2.8-2.9c-1.1-1.1-2-1.2-3.3-0.5
			c-6.6,3.5-14.2,0.7-16.9-6.2c-0.3-0.7-0.5-1.4-0.8-2.1c-0.7-1.6-1.4-2-3.1-1.9c-0.4,0-0.9,0.1-1.3,0.2c-5.3,0.6-9.9-0.7-13.4-5
			c-1.6-2-1.5-2.7,1-3.6c1.6-0.6,3.2-1,4.9-1.4c4.4-1,8.9-2.1,13.3-3c3-0.6,6.1-1,9.1-1.5c0.5-0.1,1.2-0.2,1.6-0.5
			c1.1-1,1.5-2.4-0.2-3.5c-0.4-0.3-0.9-0.5-1.3-0.7c-1.9-1-3.9-2-5.8-3c-5-2.7-9-6.6-12.4-11c-2.5-3.3-4.1-7-4.6-11.1
			c-0.2-1.4-0.1-2.8,0.2-4.2c0.5-2.1,2-2.7,3.8-1.4c1.2,0.8,2.3,1.7,3.3,2.6c5.1,4.9,10.1,9.8,15.2,14.7c1.9,1.8,3.7,3.6,5.6,5.4
			c1.3,1.2,2.7,2.4,4,3.6c-0.2,1.7-0.5,3.4-0.6,5.1c-0.2,4.6,1.1,8.7,4.3,12.2c3.4,3.8,11.9,7.2,19,4.2c3.6-1.5,6.8-3.6,8.8-7.1
			c2.2-3.7,2.8-7.7,1.5-11.8c-0.1-0.4-0.3-0.9-0.4-1.4c0.4-0.3,0.9-0.7,1.3-1c6.4-5.1,13.2-9.8,19.1-15.5c3.4-3.3,6.6-6.8,9-10.9
			c0.1-0.2,0.3-0.3,0.4-0.5c3,1,4.1,3.2,4.3,6.1c0.2,2.9-0.7,5.5-2.3,7.8c-1.3,1.9-2.8,3.7-4.5,5.2c-5,4.7-10.6,8.5-16.8,11.4
			c-0.6,0.3-1.2,0.6-1.8,0.9c-1.2,0.7-1.7,1.4-1.5,2.4c0.3,1.2,1.2,1.6,2.2,1.8c1.4,0.2,2.8,0.4,4.2,0.6c5.9,0.8,11.7,2.2,17.5,3.6
			c2,0.5,4,0.8,5.9,1.3C294.2,162.7,295.1,163,296.3,163.3z"/>
		<path class="st46" d="M244.9,137.8c-2.6-0.3-5-0.6-7.5-0.8c-0.1-0.2-0.2-0.4-0.3-0.8c-3.1-11.9-6.2-23.8-9.4-35.7
			c-0.8-2.9-1.9-5.8-2.9-8.6c-0.3-0.8-0.4-1.6-0.2-2.4c0.5-2.3,1.6-4.2,3.5-5.6c4.8-3.5,10.2-4.9,16.1-3.7c4.5,1,7.4,3.9,8.8,8.2
			c0.9,2.7,1,5.5,0.9,8.3c-0.2,5.7-1.3,11.3-2.5,16.8c-1.7,7.5-3.5,15-5.8,22.4C245.3,136.5,245.1,137.2,244.9,137.8z"/>
		<path class="st46" d="M226.6,154.4c0.1-2.6,0.5-5.1,1.8-7.3c4.5-8,14.2-7.3,18.7-3.7c2.8,2.2,4.9,4.9,6.1,8.3
			c1.5,4.4,0.5,8.3-2.9,11.4c-5.4,5-11.2,5.3-17,2.2C229,163.1,226.8,159.3,226.6,154.4z"/>
		<path class="st46" d="M249.3,140.2c-1.1-0.2-1-0.8-0.8-1.7c1-3.3,2.1-6.7,3-10c2.1-8.1,4.2-16.2,5.4-24.5
			c0.6-3.7,0.8-7.5,0.6-11.3c0-0.6,0-1.1,0-1.8c3-2.1,6.4-2.8,10-1.7c3.5,1.1,5.2,3.7,5.5,7.3c0.2,2.3-0.2,4.6-0.9,6.8
			c-1.2,4.4-3.1,8.4-5.3,12.4c-4.4,8-9.8,15.3-15.7,22.3c-0.5,0.6-1,1.2-1.5,1.8C249.5,140,249.4,140.1,249.3,140.2z"/>
		<path class="st46" d="M233.7,137.9c-0.5,0.2-0.9,0.4-1.6,0.7c-0.5-0.8-1.1-1.5-1.5-2.2c-3.1-5.1-6.2-10.2-9.4-15.2
			c-2.9-4.6-5.9-9.2-8.9-13.7c-1.9-2.9-3.9-5.7-6.4-8c-0.4-0.3-0.5-1-0.6-1.5c-0.1-0.5,0.1-1.1,0.2-1.7c0.6-3.5,4.8-8.2,9.3-8.4
			c1.8-0.1,3.4,0.3,4.5,1.8c0.9,1.3,1.7,2.6,2.3,4.1c1.9,4.6,3.1,9.4,4.4,14.2c2.6,9.8,5.1,19.7,7.7,29.5
			C233.7,137.6,233.7,137.7,233.7,137.9z"/>
		<path class="st46" d="M228.9,140.6c-1.2,1.4-2.4,2.8-3.6,4.2c-0.5-0.5-0.9-0.9-1.4-1.4c-5.7-5.6-11.4-11.3-17.2-16.9
			c-2.9-2.8-6-5.3-9-7.9c-0.4-0.3-0.7-0.7-0.9-1.1c-1.7-3.5-2.1-7.1-1.1-10.8c0.5-1.9,1.5-3.4,3-4.6c1.6-1.3,3-1.3,4.6,0
			c0.7,0.6,1.4,1.3,2,2c1.5,1.9,2.9,3.7,4.2,5.7c5.1,8,10.2,16.1,15.2,24.1C226.1,136.2,227.5,138.4,228.9,140.6z"/>
		<path class="st46" d="M298.3,167.8c0.2,1.7-0.4,3-1.3,4.2c-2.1,2.9-5.1,4.5-8.7,5c-0.4,0.1-0.8,0.1-1.2,0.1
			c-1.2,0.2-1.9,0.8-2.3,1.9c-0.3,1-0.7,1.9-1.1,2.8c-1.3,2.8-3.3,4.8-6.2,5.9c-4.4,1.8-8.8,2.4-13.3,0.4c-1.4-0.6-2.5-0.2-3.5,0.8
			c-1,1.1-2.1,2.2-3.2,3.2c-6.1,5.6-13.4,7.2-21.5,6.5c-3.2-0.3-6.2-1.2-9-2.6c-2.5-1.2-4.5-2.9-5.9-5.4c-0.2-0.4-0.5-0.8-0.7-1.1
			c-0.9-1.4-2.2-2-3.9-1.9c-1.7,0.1-3.5,0.3-5.2,0c-1.9-0.3-3.9-0.8-5.6-1.6c-2.6-1.1-4.5-3.1-5.9-5.6c-0.8-1.5-1.8-2.2-3.6-2.3
			c-4.5-0.3-8.2-2.3-11-5.9c-0.6-0.8-1.2-1.7-1.5-3.2c4.9,5.4,10.7,6.9,17.4,5.9c0.4,0.9,0.8,1.8,1.2,2.8
			c2.9,7.4,12.1,10.2,17.3,8.7c1.2-0.3,2.3-0.8,3.8-1.4c0.2,0.2,0.4,0.7,0.7,1c5.5,6.6,12.7,8.5,20.9,8c2.8-0.2,5.5-0.8,8.1-2.2
			c3.3-1.7,5.6-4.2,6.8-7.8c0.1-0.3,0.2-0.6,0.4-1c1.6,0.3,3.1,0.5,4.7,0.8c3.7,0.6,7.2-0.3,10.4-2c2.3-1.1,4-3,5.1-5.3
			c0.9-1.9,2.2-2.4,4.2-2.3c4.9,0.2,8.9-2,12.3-5.4c0.3-0.3,0.6-0.7,0.9-1C297.9,167.9,298,167.9,298.3,167.8z"/>
		<path class="st46" d="M254.6,146.1c-0.9-1.1-1.6-2.1-2.5-3.3c0.4-0.5,0.8-1.1,1.2-1.6c3.9-4.9,8-9.7,11.4-15.1
			c2.8-4.3,5.5-8.6,7.7-13.3c1.1-2.5,2-5,3-7.5c0.5-1.3,0.4-1.3,1.9-1.5c1.7-0.1,3.3,0.2,4.6,1.2c0.7,0.5,1.3,1.3,1.7,2.1
			c1.7,3.2,1.7,6.6,0.4,10c-0.7,1.8-1.6,3.5-2.7,5c-1.8,2.4-3.7,4.7-5.8,6.8c-3.8,3.9-8,7.4-12.4,10.6c-2.3,1.7-4.5,3.5-6.8,5.3
			C255.7,145.3,255.1,145.7,254.6,146.1z"/>
	</g>
	<g>
		<path class="st47" d="M105.8,270.6c-0.2-0.6-0.4-1.1-0.6-1.7c-4.6-12.8-7.5-26-10.1-39.3c-2.5-12.9-4.9-25.7-7.4-38.6
			c-0.6-3.2-1.4-6.4-3-9.3c-0.2-0.4-0.2-1,0-1.4c0.5-0.9,1.1-1.8,1.9-2.6c1-1,2.1-2,3.4-2.7c5.9-3.3,12.3-5,19.1-4.1
			c6.7,0.8,10.1,5,10.5,11.2c0.3,3.6,0.2,7.3-0.1,11c-0.4,5.7-0.9,11.3-1.5,17c-1.3,11.6-3.3,23-5.9,34.4
			c-1.9,8.2-3.7,16.3-5.6,24.5c-0.1,0.6-0.3,1.2-0.5,1.8C106,270.6,105.9,270.6,105.8,270.6z"/>
		<path class="st47" d="M101.2,269.3c-0.3-0.4-0.7-0.8-1-1.3c-2.2-3.3-4.5-6.5-6.4-9.9c-7.7-14-15.4-28-22.1-42.5
			c-1.4-3-2.8-6-4.3-9c-0.8-1.5-1.6-3-2.6-4.3c-0.6-0.8-0.9-1.7-0.8-2.7c0.9-7.6,4.3-13.7,11.2-17.4c0.3-0.2,0.7-0.3,1.1-0.5
			c2.5-1,4.4-0.4,5.5,2c1,2.3,1.8,4.7,2.3,7.2c1.4,6.7,2.4,13.5,3.8,20.2c2.9,14.7,5.6,29.5,9.4,44c1.1,4.2,2.5,8.3,3.8,12.4
			c0.2,0.5,0.3,1,0.5,1.6C101.3,269.2,101.2,269.3,101.2,269.3z"/>
		<path class="st47" d="M110.5,268.1c0.4-1.9,0.9-3.7,1.3-5.6c2.4-10.9,4.9-21.8,7.1-32.8c2-10.1,3.3-20.3,4-30.6
			c0.3-4.7,0.5-9.4,0.8-14.1c0.1-1,0.2-1.2,1.4-1.5c3.2-0.7,6.3-0.2,9.2,1.2c5,2.3,7.2,6.6,7.8,11.8c0.3,2.7,0,5.4-0.9,8
			c-1.4,4.1-2.8,8.2-4.4,12.2c-5.9,14.5-12.6,28.6-20.1,42.3c-1.5,2.7-3.2,5.3-4.8,8c-0.3,0.5-0.7,0.9-1,1.3
			C110.7,268.2,110.6,268.1,110.5,268.1z"/>
		<path class="st47" d="M98,271.8c-0.5-0.3-1-0.6-1.5-0.9c-4.3-2.9-8.3-6.2-12-9.8c-8.3-8.1-15.7-16.8-22.3-26.3
			c-3.3-4.7-6-9.6-7.5-15.2c-0.9-3.5-1.1-7,0.2-10.5c0.6-1.7,1.4-3.3,2.9-4.5c0.5-0.4,1.1-0.8,1.7-1.1c0.7-0.4,1.4-0.3,1.9,0.5
			c0.4,0.6,0.9,1.2,1.2,1.8c1,1.9,2.1,3.7,3,5.7c6.1,13.5,13,26.6,20.1,39.5c2.1,3.8,4.2,7.7,6.4,11.5c1.6,2.7,3.5,5.2,5.2,7.8
			c0.3,0.4,0.6,0.9,0.9,1.3C98.1,271.7,98.1,271.8,98,271.8z"/>
		<path class="st47" d="M145.6,202c0.2,0,0.4-0.1,0.6,0c4.9,1.1,9.3,5.8,9.9,10.8c0.3,2.3-0.1,4.6-0.8,6.8c-0.9,2.8-2.1,5.4-3.7,7.7
			c-2.9,4.2-5.8,8.3-8.9,12.3c-7,9-14.3,17.7-22.4,25.7c-1.7,1.7-3.5,3.3-5.3,5c-0.4,0.4-0.9,0.7-1.6,0.9c0.1-0.2,0.2-0.5,0.4-0.7
			c3.1-4.3,5.5-8.9,8-13.5c7.4-13.7,13.9-27.9,19.7-42.3c1.6-3.9,2.9-7.8,3.8-11.9C145.4,202.5,145.5,202.3,145.6,202z"/>
		<path class="st47" d="M98.4,276.1c-1.8,0.3-3.1,0.6-4.5,0.7c-4.5,0.3-9,0.7-13.5,0.8c-1.6,0.1-3.2-0.3-4.8-0.7
			c-1.9-0.5-3-1.9-3.5-3.7c-0.5-1.8-0.4-3.6,0-5.3c0.7-3.8,1.4-7.5,2.2-11.3c0-0.2,0.1-0.3,0.3-0.7c0.5,0.5,0.9,0.9,1.3,1.3
			c4.2,4.5,8.5,9,13.5,12.7c2.4,1.8,5,3.4,7.5,5.1C97.3,275.3,97.7,275.6,98.4,276.1z"/>
		<path class="st47" d="M135.5,254.8c0.4,5.8,0.6,11.7-0.3,17.5c0,0.3-0.1,0.5-0.2,0.8c-0.3,2.6-2,3.9-4.4,4.4
			c-1,0.2-2.1,0.4-3.2,0.4c-4.7-0.1-9.3-0.7-14-1.7c0.2-0.3,0.3-0.5,0.5-0.6c2.8-1.7,5.2-3.9,7.5-6.3c4.4-4.6,8.7-9.2,13-13.9
			c0.3-0.3,0.4-0.6,0.6-1C135.2,254.6,135.4,254.7,135.5,254.8z"/>
	</g>
	<g>
		<path class="st49" d="M185.6,228c0.7,0.5,1.3,1,2,1.5c5,3.9,10.1,7.7,15,11.8c5,4.1,9.6,8.7,13.4,14c1.8,2.6,3.4,5.3,4.7,8.2
			c3.1,7.4,2.5,14.4-1.8,21.1c-2.2,3.4-4.6,6.6-7,9.9c-1.5,2.1-3.1,4-4.5,6.1c-2,2.9-3.6,6.1-4.1,9.8c-1.8-0.2-3.4-1-4.9-1.9
			c-11.1-6.8-17.1-16.5-17.2-29.6c0-4.7,0.9-9.3,2-13.8c0.8-3.1,1.6-6.1,2.4-9.1c2.4-9,2.3-18-0.2-27c-0.1-0.2-0.1-0.4-0.1-0.6
			C185.4,228.2,185.5,228.1,185.6,228z"/>
		<path class="st49" d="M239.9,286.4c1.9,0.3,3.6,0.9,5.1,2c2.2,1.7,3.5,4,3.6,6.8c0.2,3.4-1,6.5-2.8,9.2c-2.6,3.8-5.3,7.4-8,11.1
			c-2,2.8-3.5,5.7-4.4,9.1c-0.4,1.6-0.6,3.3-0.9,5.2c-1.6-0.2-3.4-0.2-5-0.6c-3.4-0.8-6.3-4.5-6.6-8.3c-0.3-3.6,0.9-6.8,2.9-9.7
			c1.6-2.3,3.2-4.6,5-6.8c3-3.8,6-7.5,8.3-11.7C238,290.6,238.9,288.6,239.9,286.4z"/>
		<path class="st49" d="M217.1,319.8c-3.2,0.2-5.8-0.9-7.9-3.1c-2.3-2.3-2.9-5-1.9-8.1c0.8-2.6,2.2-4.9,3.8-7.1
			c2.4-3.3,4.9-6.4,7.3-9.7c2.3-3.1,4.3-6.3,5.9-9.8c1.1-2.7,1.8-5.4,2-8.3c0-0.3,0.1-0.7,0.1-1c0,0,0.1-0.1,0.2-0.3
			c0.6,0.1,1.4,0.2,2,0.4c6.2,2,9.2,8.1,6.9,14.3c-1.2,3.1-2.9,5.9-4.9,8.6c-2.7,3.6-5.5,7.1-8.2,10.7c-1.3,1.7-2.3,3.6-3.4,5.4
			C217.7,314.3,217.2,317,217.1,319.8z"/>
		<path class="st49" d="M250.5,341.3c-2.9,0.8-5.4,0.5-7.7-1.1c-5.8-3.8-7.7-9.3-5.5-15.8c0.8-2.6,2.1-4.9,3.8-7.1
			c2.3-3.1,4.6-6.1,6.8-9.2c1.8-2.4,3.1-5.1,3.9-8c0.1-0.2,0.2-0.4,0.3-0.6c2.8-0.2,5.6,1.5,6.7,4c0.8,1.8,1,3.8,0.9,5.8
			c-0.2,2.5-0.9,4.9-1.8,7.2c-1.2,3-2.5,5.9-3.9,8.8C251.5,330.3,250,335.5,250.5,341.3z"/>
		<path class="st49" d="M263.3,312.8c0.5,1,1.1,1.9,1.4,3c0.5,1.8,0.7,3.6,1,5.5c0.3,2.3,0.5,4.6,0.9,6.9c0.9,5.2,3.8,9.1,8.3,11.7
			c2.7,1.6,5.5,2.8,8.2,4.3c0.9,0.5,1.8,1,2.5,1.7c0.9,0.8,0.8,1.5-0.1,2.3c-0.5,0.4-1.1,0.8-1.7,1.1c-3.9,1.9-8,3.2-12.3,3.2
			c-5.9,0.1-11.1-1.9-15.2-6.4c-1.3-1.5-2-3.2-2.2-5.2c-0.4-4.1,0.4-7.9,2.1-11.7c1.5-3.3,3.1-6.6,4.5-10c0.8-2,1.5-4.1,2.2-6.2
			C263,312.9,263.1,312.8,263.3,312.8z"/>
	</g>
	<g>
		<path class="st50" d="M377.4,281.1l-17.8-25.4c-0.6-0.9-0.7-1.9-0.4-2.9l10.8-29.1c0.9-2.5-1.4-4.9-3.9-4.1l-29.7,9.1
			c-1,0.3-2.1,0.1-2.9-0.5l-24.3-19.3c-2.1-1.6-5.1-0.2-5.1,2.4l-0.5,31c0,1-0.5,2-1.4,2.6L276.3,262c-2.2,1.4-1.8,4.8,0.7,5.6
			l29.4,10.1c1,0.3,1.7,1.1,2,2.1l8.3,29.9c0.7,2.5,4,3.1,5.6,1.1L341,286c0.6-0.8,1.6-1.3,2.7-1.3l31,1.3
			C377.3,286.2,378.9,283.3,377.4,281.1z M316.5,262.6c-9.3-0.2-18.6,0.3-27.8,1.6c-2.2,0.3-3.2-3.1-0.9-3.4
			c9.6-1.3,19.1-2,28.8-1.7C318.8,259.1,318.8,262.6,316.5,262.6z M310.5,223c-0.8-2.1,2.6-3.1,3.4-0.9c3,8,6.3,15.7,10.1,23.4
			c1,2-2,3.8-3.1,1.8C317,239.3,313.6,231.3,310.5,223z M325.5,274c-0.9,7.7-1.5,15.4-1.8,23.1c-0.1,2.3-3.6,2.3-3.5,0
			c0.3-7.7,0.9-15.4,1.8-23.1C322.2,271.8,325.8,271.8,325.5,274z M337.6,248.4c5.7-6.8,11.7-13.3,17.9-19.6
			c1.6-1.6,4.1,0.9,2.5,2.5c-6.2,6.3-12.2,12.8-17.9,19.6C338.6,252.6,336.1,250.1,337.6,248.4z M365.7,278.4
			c-8.7-3.3-17.5-6.4-26.3-9.4c-2.1-0.7-1.2-4.1,0.9-3.4c8.8,2.9,17.6,6.1,26.3,9.4C368.7,275.8,367.8,279.2,365.7,278.4z"/>
	</g>
</g>
</svg>
